<?xml version="1.0" standalone="no"?>
<!DOCTYPE svg PUBLIC "-//W3C//DTD SVG 20010904//EN"
 "http://www.w3.org/TR/2001/REC-SVG-20010904/DTD/svg10.dtd">
<svg version="1.0" xmlns="http://www.w3.org/2000/svg"
 width="1024.000000pt" height="1024.000000pt" viewBox="0 0 1024.000000 1024.000000"
 preserveAspectRatio="xMidYMid meet">

<g transform="translate(0.000000,1024.000000) scale(0.100000,-0.100000)"
fill="#000000" stroke="none">
<path d="M1980 7680 c-349 -91 -734 -483 -872 -890 -94 -277 -72 -547 58 -698
64 -75 133 -93 179 -47 29 28 30 42 10 109 -20 65 -19 226 1 322 76 369 385
825 647 954 101 50 156 55 192 19 49 -48 50 -181 4 -334 -11 -38 -77 -219
-145 -402 -137 -370 -288 -815 -334 -988 -61 -227 -83 -431 -60 -563 23 -139
110 -267 216 -317 144 -68 328 -31 500 100 218 167 561 611 841 1088 19 31 36
57 38 57 2 0 -2 -19 -9 -42 -188 -602 -408 -1296 -437 -1374 l-20 -52 -82 -12
c-436 -62 -808 -248 -1126 -560 -268 -264 -382 -523 -342 -780 45 -293 308
-450 644 -386 307 59 598 317 846 749 80 139 203 390 290 592 l68 160 134 6
c151 6 198 21 230 73 26 42 25 110 -1 136 -33 33 -64 40 -171 40 -54 0 -99 2
-99 4 0 2 43 131 95 287 266 790 400 1249 579 1979 84 339 95 400 85 449 -17
80 -92 131 -197 131 -124 0 -152 -32 -202 -227 -72 -277 -163 -518 -308 -808
-303 -609 -806 -1275 -1048 -1390 -85 -40 -126 -29 -163 43 -28 55 -34 118
-22 219 18 150 44 229 366 1128 87 244 164 483 185 580 76 339 -28 586 -272
651 -75 20 -208 17 -298 -6z m710 -3311 c0 -20 -123 -290 -210 -464 -149 -294
-259 -455 -408 -596 -226 -215 -437 -227 -497 -27 -29 100 -12 216 55 354 124
257 438 544 727 664 140 59 333 98 333 69z"/>
<path d="M8125 6360 c-253 -44 -553 -290 -777 -635 -32 -49 -101 -175 -152
-280 -52 -104 -122 -232 -156 -283 -80 -121 -223 -271 -295 -308 -51 -27 -55
-28 -72 -12 -46 46 -11 166 177 603 163 382 194 479 194 600 0 73 -4 98 -21
131 -84 159 -279 165 -482 15 -122 -91 -350 -338 -565 -614 -38 -48 -70 -86
-73 -84 -2 3 28 90 68 193 93 246 137 374 145 422 9 55 -10 113 -51 152 -30
29 -43 34 -94 38 -75 5 -125 -11 -157 -52 -15 -19 -52 -111 -93 -236 -113
-341 -213 -561 -343 -752 -126 -186 -259 -331 -362 -392 -71 -42 -94 -45 -126
-11 -21 23 -22 30 -17 112 6 111 28 180 174 548 202 510 229 600 204 678 -33
100 -161 119 -246 36 l-31 -29 -50 48 c-121 116 -278 140 -457 72 -101 -38
-233 -134 -363 -264 -310 -311 -494 -703 -494 -1050 0 -162 33 -249 127 -337
64 -60 130 -82 227 -77 112 5 186 47 311 172 96 97 227 274 271 369 25 53 35
46 18 -15 -28 -107 -11 -285 35 -376 66 -129 221 -191 366 -148 130 40 313
223 429 430 20 36 38 66 39 66 2 0 -10 -51 -26 -112 -37 -147 -45 -270 -20
-318 22 -43 73 -70 133 -70 89 0 129 45 225 250 94 202 178 348 299 519 207
291 557 661 627 661 43 0 12 -124 -83 -335 -210 -462 -257 -619 -245 -803 6
-89 38 -175 80 -220 60 -65 165 -97 260 -80 147 27 322 188 439 403 22 41 41
75 42 75 1 0 0 -30 -2 -67 -7 -138 47 -289 126 -349 65 -50 118 -66 201 -63
61 3 89 10 142 36 140 69 285 231 442 493 29 48 37 57 33 35 -4 -16 -9 -85
-13 -151 -5 -107 -3 -131 16 -192 61 -202 249 -288 457 -211 157 59 389 296
544 556 68 114 126 238 136 291 9 46 -12 88 -49 102 -44 15 -68 -5 -136 -119
-172 -284 -437 -564 -568 -600 -53 -15 -78 0 -93 53 -28 102 17 255 240 816
154 385 167 436 135 503 -23 50 -58 70 -120 70 -54 0 -89 -14 -115 -46 -16
-19 -17 -18 -43 17 -35 45 -107 95 -161 111 -60 18 -154 25 -211 15z m-3340
-266 c20 -9 40 -30 51 -52 15 -32 16 -44 5 -97 -32 -164 -303 -583 -576 -895
-132 -150 -205 -205 -263 -198 -78 9 -68 199 24 446 52 138 111 252 202 388
216 322 421 473 557 408z m3530 1 c113 -54 50 -250 -200 -625 -262 -391 -508
-649 -599 -626 -82 21 -67 221 36 481 130 331 426 707 608 771 48 18 116 17
155 -1z"/>
<path d="M5515 4033 c-877 -23 -2004 -248 -2141 -428 -50 -66 -40 -161 21
-201 37 -24 111 -13 250 35 275 96 710 188 1235 260 878 122 1533 122 2171 1
274 -52 413 -102 529 -189 68 -51 108 -54 151 -12 25 25 29 37 29 82 0 51 -2
55 -57 109 -96 92 -279 166 -568 228 -438 95 -963 132 -1620 115z"/>
</g>
</svg>
